<svg xmlns="http://www.w3.org/2000/svg" width="61.328" height="60.402" viewBox="0 0 61.328 60.402">
  <g id="comments" transform="translate(0 -3.863)">
    <path id="Path_26342" data-name="Path 26342" d="M69.191,234.484a3.507,3.507,0,1,0,3.507-3.507A3.511,3.511,0,0,0,69.191,234.484Zm5.217,0a1.71,1.71,0,1,1-1.71-1.71A1.712,1.712,0,0,1,74.408,234.484Z" transform="translate(-60.903 -199.91)" fill="#fff"/>
    <path id="Path_26343" data-name="Path 26343" d="M146.543,234.484a3.507,3.507,0,1,0-3.507,3.507A3.511,3.511,0,0,0,146.543,234.484Zm-5.217,0a1.71,1.71,0,1,1,1.71,1.71A1.712,1.712,0,0,1,141.326,234.484Z" transform="translate(-122.816 -199.91)" fill="#fff"/>
    <path id="Path_26344" data-name="Path 26344" d="M216.88,234.484a3.507,3.507,0,1,0-3.507,3.507A3.511,3.511,0,0,0,216.88,234.484Zm-5.217,0a1.71,1.71,0,1,1,1.71,1.71A1.712,1.712,0,0,1,211.663,234.484Z" transform="translate(-184.728 -199.91)" fill="#fff"/>
    <path id="Path_26345" data-name="Path 26345" d="M287.217,234.484a3.507,3.507,0,1,0-3.507,3.507A3.511,3.511,0,0,0,287.217,234.484Zm-5.217,0a1.71,1.71,0,1,1,1.71,1.71A1.712,1.712,0,0,1,282,234.484Z" transform="translate(-246.64 -199.91)" fill="#fff"/>
    <path id="Path_26346" data-name="Path 26346" d="M52.569,3.863H19.423a8.769,8.769,0,0,0-8.759,8.759v1.417h-1.9A8.769,8.769,0,0,0,0,22.8V45.07a8.769,8.769,0,0,0,8.759,8.759h9.364a.9.9,0,1,0,0-1.8H8.759A6.97,6.97,0,0,1,1.8,45.07V22.8a6.97,6.97,0,0,1,6.962-6.962H41.9A6.97,6.97,0,0,1,48.867,22.8V45.07A6.97,6.97,0,0,1,41.9,52.032a3.371,3.371,0,0,0-2.621,1.235,43.481,43.481,0,0,1-10.619,9.144.309.309,0,0,1-.439-.405,34.336,34.336,0,0,0,2.6-7.246,2.224,2.224,0,0,0-2.169-2.728H22.316a.9.9,0,0,0,0,1.8h6.337a.427.427,0,0,1,.42.52,32.527,32.527,0,0,1-2.46,6.866,2.108,2.108,0,0,0,3,2.724,45.3,45.3,0,0,0,11.064-9.533,1.581,1.581,0,0,1,1.23-.576,8.769,8.769,0,0,0,8.759-8.759V43.653h1.9a8.769,8.769,0,0,0,8.759-8.759v-9.04a.9.9,0,1,0-1.8,0v9.04a6.97,6.97,0,0,1-6.962,6.962h-1.9V22.8A8.769,8.769,0,0,0,41.9,14.039H12.461V12.622A6.97,6.97,0,0,1,19.423,5.66H52.569a6.97,6.97,0,0,1,6.962,6.962v9.04a.9.9,0,1,0,1.8,0v-9.04a8.769,8.769,0,0,0-8.759-8.759Z" fill="#fff"/>
  </g>
</svg>
