<svg xmlns="http://www.w3.org/2000/svg" width="31.756" height="30.433" viewBox="0 0 31.756 30.433">
  <g id="Group_4832" data-name="Group 4832" transform="translate(0 -10.667)">
    <g id="Group_4811" data-name="Group 4811" transform="translate(0 10.667)">
      <g id="Group_4810" data-name="Group 4810">
        <path id="Path_26317" data-name="Path 26317" d="M31.756,28.86a2.94,2.94,0,0,0-.861-2.083,3.285,3.285,0,0,0,.847-2.526,3.42,3.42,0,0,0-3.451-3H20.117a19.024,19.024,0,0,0,1.053-5.293c0-2.87-2.439-5.293-3.969-5.293a4.156,4.156,0,0,0-2.4.806.662.662,0,0,0-.249.517v4.487l-3.812,8.255-.157.081V24.56a.662.662,0,0,0-.662-.662H3.308A3.311,3.311,0,0,0,0,27.207V37.792A3.311,3.311,0,0,0,3.308,41.1H7.277a3.315,3.315,0,0,0,3.113-2.187,8.626,8.626,0,0,0,3.5.864H26.039a3.044,3.044,0,0,0,3-2.31,2.987,2.987,0,0,0-.238-1.989,2.966,2.966,0,0,0,1.325-3.97A2.965,2.965,0,0,0,31.756,28.86Zm-2.791,1.633a.661.661,0,0,0-.378,1.139,1.639,1.639,0,0,1-.943,2.83.661.661,0,0,0-.378,1.139,1.636,1.636,0,0,1,.479,1.579,1.712,1.712,0,0,1-1.706,1.273H13.893a6.272,6.272,0,0,1-3.5-1.13.662.662,0,0,0-1.13.468,1.987,1.987,0,0,1-1.985,1.985H3.308a1.987,1.987,0,0,1-1.985-1.985V27.207a1.987,1.987,0,0,1,1.985-1.985H9.262v.662a.664.664,0,0,0,.315.564.676.676,0,0,0,.643.028l1.323-.662a.661.661,0,0,0,.3-.314l3.969-8.6a.674.674,0,0,0,.061-.278V12.349A2.79,2.79,0,0,1,17.2,11.99c.725,0,2.646,1.8,2.646,3.97a20.6,20.6,0,0,1-1.279,5.719.661.661,0,0,0,.618.9h9.1a2.089,2.089,0,0,1,2.133,1.8,1.977,1.977,0,0,1-.942,1.872.663.663,0,0,0,.045,1.152,1.638,1.638,0,0,1-.561,3.095Z" transform="translate(0 -10.667)" fill="#fff"/>
      </g>
    </g>
    <g id="Group_4813" data-name="Group 4813" transform="translate(9.262 25.222)">
      <g id="Group_4812" data-name="Group 4812">
        <path id="Path_26318" data-name="Path 26318" d="M149.995,245.333a.662.662,0,0,0-.662.662V257.9a.662.662,0,1,0,1.323,0V245.995A.662.662,0,0,0,149.995,245.333Z" transform="translate(-149.333 -245.333)" fill="#fff"/>
      </g>
    </g>
  </g>
</svg>
