<svg xmlns="http://www.w3.org/2000/svg" width="25.219" height="33.57" viewBox="0 0 30.219 38.57">
  <path id="Path_26319" data-name="Path 26319" d="M85.085,29.23a.565.565,0,0,0,.565-.565V15.105a3.087,3.087,0,0,0-.74-1.942L80.72,8.086a3.314,3.314,0,0,0-.746-.669c.017-.173.026-.347.026-.523V.566a.565.565,0,0,0-1.13,0s0,6.382,0,6.409a2.8,2.8,0,0,0-.488-.043H71.074a2.9,2.9,0,0,0-1.47.41.572.572,0,0,0-.058.024l-5.508,2.683a2.952,2.952,0,0,0-1.374,1.446l-.009.021L60.378,17.29a.565.565,0,1,0,1.051.414L63.7,11.94a1.816,1.816,0,0,1,.837-.879l2.91-1.417-2.9,3.519a3.005,3.005,0,0,0-.665,1.942V34.616a4.039,4.039,0,0,0,.056.666L58.114,32.7a2.62,2.62,0,0,1-1.328-3.45l.007-.017,3.682-9.152a.565.565,0,1,0-1.048-.422l-3.679,9.143a3.752,3.752,0,0,0,1.908,4.931l6.827,3.025.025.01a3.861,3.861,0,0,0,3.251,1.8H81.7a4.008,4.008,0,0,0,3.955-3.955V31.3a.565.565,0,0,0-1.13,0v3.315A2.863,2.863,0,0,1,81.7,37.441H67.759a2.791,2.791,0,0,1-2.75-2.825V15.105a1.865,1.865,0,0,1,.406-1.223l4.19-5.077a1.93,1.93,0,0,1,1.468-.744h7.307a1.665,1.665,0,0,1,.317.031,4.256,4.256,0,0,1-2.413,2.717,1.77,1.77,0,1,0,.236,1.122,5.384,5.384,0,0,0,3.185-3.284c.049.049.1.1.142.157l4.19,5.077a1.959,1.959,0,0,1,.482,1.223v13.56a.565.565,0,0,0,.565.565ZM74.765,12.355a.64.64,0,1,1,.64-.64A.641.641,0,0,1,74.765,12.355Z" transform="translate(-55.432 -0.001)" fill="#fff"/>
</svg>
