<svg id="surface1" xmlns="http://www.w3.org/2000/svg" width="35" height="29.736" viewBox="0 0 35 29.736">
  <path id="Path_26304" data-name="Path 26304" d="M33.975,1.025H35V0H33.975a1.61,1.61,0,0,0-1.538,1.671V9.1a8.712,8.712,0,0,0-7.03-1.291L21.433,3.55a2.56,2.56,0,0,0-1.945-.814l-4.221.115a8.766,8.766,0,0,0-3.828,1L6,6.725a2.912,2.912,0,0,1-1.355.336H3.816V5.815H0V6.84H2.791V18.119H0v1.025H3.816V17.9H5.042a2.21,2.21,0,0,1,1.3.421l2.7,1.954a6.65,6.65,0,0,0,5.547,1.057l5.034-1.281a8.719,8.719,0,0,0,12.81,3.4v4.619a1.61,1.61,0,0,0,1.538,1.67H35V28.711H33.975a.6.6,0,0,1-.513-.645V1.671A.6.6,0,0,1,33.975,1.025ZM14.34,20.336a5.626,5.626,0,0,1-4.694-.895l-2.7-1.954a3.228,3.228,0,0,0-1.9-.615H3.816V8.086h.829a3.943,3.943,0,0,0,1.834-.454l5.438-2.87A7.744,7.744,0,0,1,15.3,3.876l4.221-.115a1.536,1.536,0,0,1,1.167.488l3.639,3.9a8.674,8.674,0,0,0-2.544,1.535L19.806,8.157a1.89,1.89,0,0,0-1.442-.371l-2.682.42a1.867,1.867,0,0,0-1.437,1.117l-1.337,3.12a1.874,1.874,0,0,0,.5,2.167l1.462,1.256a1.883,1.883,0,0,0,1.671.4l3.02-.736a1.684,1.684,0,0,1,.814,3.269Zm6.7-9.928a8.626,8.626,0,0,0-2.114,4.223l-2.625.639a.854.854,0,0,1-.759-.183l-1.462-1.256a.852.852,0,0,1-.229-.985l1.338-3.121a.849.849,0,0,1,.653-.507l2.683-.42a.857.857,0,0,1,.655.169Zm11.4,11.748A7.7,7.7,0,0,1,20.643,19.79a2.709,2.709,0,0,0,1.923-3.37,2.711,2.711,0,0,0-2.554-1.963A7.691,7.691,0,0,1,32.437,10.39Zm0,0" fill="#fff"/>
  <path id="Path_26305" data-name="Path 26305" d="M364.5,185.579h1.025v-3.315h2.153a2.632,2.632,0,0,0,0-5.264H364.5Zm1.025-7.554h2.153a1.606,1.606,0,0,1,0,3.213h-2.153Zm0,0" transform="translate(-339.583 -164.9)" fill="#fff"/>
  <path id="Path_26306" data-name="Path 26306" d="M186,341h1.025v1.025H186Zm0,0" transform="translate(-173.285 -317.689)" fill="#fff"/>
  <path id="Path_26307" data-name="Path 26307" d="M246,341h1.025v1.025H246Zm0,0" transform="translate(-229.184 -317.689)" fill="#fff"/>
  <path id="Path_26308" data-name="Path 26308" d="M216,341h1.025v1.025H216Zm0,0" transform="translate(-201.234 -317.689)" fill="#fff"/>
  <path id="Path_26309" data-name="Path 26309" d="M186,381h1.025v1.025H186Zm0,0" transform="translate(-173.285 -354.955)" fill="#fff"/>
  <path id="Path_26310" data-name="Path 26310" d="M216,381h1.025v1.025H216Zm0,0" transform="translate(-201.234 -354.955)" fill="#fff"/>
  <path id="Path_26311" data-name="Path 26311" d="M156,381h1.025v1.025H156Zm0,0" transform="translate(-145.336 -354.955)" fill="#fff"/>
  <path id="Path_26312" data-name="Path 26312" d="M107.559,115.327l.907-.479.479.907-.907.479Zm0,0" transform="translate(-100.206 -106.997)" fill="#fff"/>
  <path id="Path_26313" data-name="Path 26313" d="M134.094,87.46l2.835-1.5.479.907-2.835,1.5Zm0,0" transform="translate(-124.927 -80.088)" fill="#fff"/>
  <path id="Path_26314" data-name="Path 26314" d="M10.5,235.5h1.025v1.025H10.5Zm0,0" transform="translate(-9.782 -219.401)" fill="#fff"/>
  <path id="Path_26315" data-name="Path 26315" d="M417.655,305.627a6.662,6.662,0,0,0,2.812-1.26l-.625-.813a5.629,5.629,0,0,1-2.377,1.065Zm0,0" transform="translate(-388.927 -282.804)" fill="#fff"/>
  <path id="Path_26316" data-name="Path 26316" d="M388.752,319.753a5.713,5.713,0,0,1-.69-.058l-.148,1.014a6.764,6.764,0,0,0,.814.069l.156,0h.137L389,319.754Q388.876,319.756,388.752,319.753Zm0,0" transform="translate(-361.396 -297.841)" fill="#fff"/>
</svg>
