<svg id="Group_4814" data-name="Group 4814" xmlns="http://www.w3.org/2000/svg" width="39.009" height="39" viewBox="0 0 39.009 39">
  <path id="Path_26323" data-name="Path 26323" d="M19.511.05A19.5,19.5,0,0,0,1.582,11.875l-.243.081.094.283A19.5,19.5,0,1,0,19.511.05Zm15.3,29.332-1-1V26.05a.649.649,0,0,0-.065-.291L31.206,20.7V18.25a.65.65,0,0,0-.289-.541l-1.95-1.3a.65.65,0,0,0-.52-.09l-2.388.6L22.047,15.2,21.5,11.329,23.025,9.8h3.283l1.105,1.661a.65.65,0,0,0,.434.28l3.9.65a.645.645,0,0,0,.312-.025l3.592-1.2A18.135,18.135,0,0,1,34.807,29.382ZM32.126,6.455l-1.057.7-2.946-.59-1.912-.636a.638.638,0,0,0-.363-.014l-2.417.6-1.06-.353.785-1.57h2.2a.65.65,0,0,0,.291-.068L27.9,3.407A18.267,18.267,0,0,1,32.126,6.455ZM12.386,2.8l1.56,1.04a.649.649,0,0,0,.254.1l3.15.525-.307.92L15.4,5.935a.65.65,0,0,0-.352.281L13.183,9.327l-3,1.8-4.42.631a.65.65,0,0,0-.559.643v1.95a.65.65,0,0,0,.19.46l1.11,1.11v1.117l-2.7-1.8L2.82,12.29A18.3,18.3,0,0,1,12.386,2.8ZM10.535,24.113,7.6,23.525,6.505,21.347V19.819L8.927,17.4l.9,1.793a.65.65,0,0,0,.582.359h4.182l1.761,2.935a.65.65,0,0,0,.557.315h1.807l-.455,2.28L15.8,27.541a.65.65,0,0,0-.191.46v1.625l-2.34,1.755a.65.65,0,0,0-.26.52v2.348L12.2,33.98l-1.141-2.855V24.75A.65.65,0,0,0,10.535,24.113ZM8.581,34.106A18.2,18.2,0,0,1,2.1,14.236l.54,1.62a.65.65,0,0,0,.255.335l3.24,2.16-.739.74a.65.65,0,0,0-.19.46V21.5a.65.65,0,0,0,.068.291l1.3,2.6a.65.65,0,0,0,.455.346l2.73.545V31.25a.65.65,0,0,0,.046.241l1.3,3.25a.65.65,0,0,0,.4.375l1.95.65a.639.639,0,0,0,.2.034.65.65,0,0,0,.65-.65V32.225l2.34-1.755a.65.65,0,0,0,.26-.52V28.269l2.41-2.41a.65.65,0,0,0,.177-.332l.65-3.25a.65.65,0,0,0-.637-.777H17.273l-1.761-2.935a.65.65,0,0,0-.557-.315H10.807L9.69,16.01a.65.65,0,0,0-.478-.351.637.637,0,0,0-.564.182l-.844.84V15.65a.65.65,0,0,0-.19-.46l-1.11-1.11V12.964l3.992-.57a.653.653,0,0,0,.242-.086l3.25-1.95a.65.65,0,0,0,.222-.222l1.827-3.044,1.722-.575a.643.643,0,0,0,.411-.411l.65-1.95a.65.65,0,0,0-.51-.845L14.55,2.683l-.661-.441a18.15,18.15,0,0,1,12.5.465L25.2,3.3H22.755a.65.65,0,0,0-.585.359l-1.3,2.6a.65.65,0,0,0,.376.907l1.95.65a.638.638,0,0,0,.363.014l2.417-.6,1.771.59a.478.478,0,0,0,.078.021l3.25.65a.645.645,0,0,0,.488-.1L33.042,7.4A18.337,18.337,0,0,1,35,10.017l-3.2,1.066-3.463-.577L27.193,8.789a.65.65,0,0,0-.538-.289h-3.9a.65.65,0,0,0-.46.19l-1.95,1.95a.65.65,0,0,0-.184.552l.65,4.55a.65.65,0,0,0,.39.505l4.55,1.95a.642.642,0,0,0,.413.033l2.321-.58,1.419.948V20.85a.649.649,0,0,0,.065.291L32.506,26.2V28.65a.65.65,0,0,0,.19.46l1.36,1.36A18.2,18.2,0,0,1,8.581,34.106Z" transform="translate(0 -0.05)" fill="#fff"/>
</svg>
