<svg xmlns="http://www.w3.org/2000/svg" width="74.986" height="50.34" viewBox="0 0 74.986 50.34">
  <g id="luxury" transform="translate(74.986 50.339) rotate(180)">
    <path id="Path_26337" data-name="Path 26337" d="M191.338,178.626c-4.153,1.281-7.476.975-12.261-1.132-2.715-1.2-4.792-2.221-6.057-2.87a1.838,1.838,0,0,1-.323-3.057l4.178-3.418,0,0,3.453-2.824a3.448,3.448,0,0,1,2.179-.778h10.419a2.012,2.012,0,0,1,2.01,2.01v9.607a1.83,1.83,0,0,1-1.3,1.756Zm-9.61-11.6-2.331,1.907,2.554,1.843.524-.754a1.1,1.1,0,1,1,1.811,1.259l-2.269,3.263a1.1,1.1,0,0,1-1.811-1.259l.486-.7-3.061-2.208-3.1,2.537c1.255.634,3.1,1.531,5.437,2.558,4.344,1.913,7.049,2.176,10.722,1.044l2.045-.632v-.4a3.5,3.5,0,0,1-3.3-3.487V169.63h-2.1a3.736,3.736,0,0,1-3.631-2.882H182.51a1.237,1.237,0,0,0-.782.279Zm4.34-.279a1.525,1.525,0,0,0,1.267.677h2.481a1.822,1.822,0,0,1,1.82,1.82V172a1.287,1.287,0,0,0,1.1,1.271v-6.527Zm0,0" transform="translate(-146.828 -153.147)" fill="#fff"/>
    <path id="Path_26338" data-name="Path 26338" d="M25.51,8.454h-.622a7.352,7.352,0,0,1-14.538,0H2.279a.074.074,0,0,0-.074.073v3.1a.368.368,0,0,0,.183.318l12.7,6.711a15.735,15.735,0,0,0,6.064,1.777l.925.078a1.108,1.108,0,0,1,.439.133c.034.019,3.461,1.9,8.941,4.309a26.645,26.645,0,0,0,5.966,1.965,1.1,1.1,0,0,1,.354.059,15.916,15.916,0,0,0,7.5-.687l12.106-3.735a1.1,1.1,0,1,1,.65,2.107L47,28.068v1.483a4.005,4.005,0,0,1,.96-.179,1.987,1.987,0,0,1,1.981,1.986v7.45a1.987,1.987,0,0,1-1.985,1.985H46.61a1.1,1.1,0,1,1,0-2.205h1.127V31.641L27.005,36.828v1.761H41.571a1.1,1.1,0,0,1,0,2.205H30.877V42.38a3.946,3.946,0,0,1,1.282.118,2.07,2.07,0,0,1,1.545,2v3.708a2.058,2.058,0,0,1-1.5,1.988,3.986,3.986,0,0,1-5.037-3.7,3.955,3.955,0,0,1,1.088-2.871,4.057,4.057,0,0,1,.413-.382V40.794H26.785A1.988,1.988,0,0,1,24.8,38.809V36.655a1.983,1.983,0,0,1,1.5-1.926l10.014-2.505V28.947a30.584,30.584,0,0,1-5.752-1.973c-4.87-2.145-8.077-3.835-8.906-4.282l-.695-.058a17.918,17.918,0,0,1-6.909-2.025L1.346,13.892l-.018-.01A2.574,2.574,0,0,1,0,11.631v-3.1A2.282,2.282,0,0,1,2.279,6.249h8.072a7.352,7.352,0,0,1,14.537,0h.622a1.1,1.1,0,1,1,0,2.205Zm5.642,39.68A1.788,1.788,0,0,0,31.5,48.1V44.609a1.815,1.815,0,0,0-.391-.033,1.78,1.78,0,0,0,.045,3.558Zm7.37-16.462L44.8,30.1V28.721a17.651,17.651,0,0,1-6.273.577ZM17.62,2.205a5.146,5.146,0,1,0,5.146,5.147A5.153,5.153,0,0,0,17.62,2.205Zm0,0" transform="translate(0 0)" fill="#fff"/>
    <path id="Path_26339" data-name="Path 26339" d="M243.361,207.012h-7.944a.827.827,0,0,0-.242.037l-1.768.546a1.1,1.1,0,1,1-.65-2.108l1.768-.545a3.02,3.02,0,0,1,.892-.134h7.944a.369.369,0,0,0,.368-.368v-.22h-1.691a2.282,2.282,0,0,1-2.279-2.279v-.515a4.712,4.712,0,0,1,3.97-4.647v-3.66a.368.368,0,0,0-.368-.368h-4a7.352,7.352,0,0,1-14.538,0H201.384a1.1,1.1,0,1,1,0-2.205h23.437a7.352,7.352,0,0,1,14.537,0h4a2.576,2.576,0,0,1,2.573,2.573v11.321a2.576,2.576,0,0,1-2.573,2.573ZM232.089,186.5a5.146,5.146,0,1,0,5.146,5.147A5.152,5.152,0,0,0,232.089,186.5Zm9.876,14.924v.515a.073.073,0,0,0,.073.073h1.691v-2.977A2.5,2.5,0,0,0,241.965,201.425Zm0,0" transform="translate(-170.948 -184.296)" fill="#fff"/>
    <path id="Path_26340" data-name="Path 26340" d="M99.857,276.58a3.508,3.508,0,1,1,3.508-3.508A3.512,3.512,0,0,1,99.857,276.58Zm0-4.811a1.3,1.3,0,1,0,1.3,1.3,1.3,1.3,0,0,0-1.3-1.3Zm0,0" transform="translate(-82.237 -265.72)" fill="#fff"/>
    <path id="Path_26341" data-name="Path 26341" d="M397.017,276.58a3.508,3.508,0,1,1,3.509-3.508A3.512,3.512,0,0,1,397.017,276.58Zm0-4.811a1.3,1.3,0,1,0,1.3,1.3A1.3,1.3,0,0,0,397.017,271.768Zm0,0" transform="translate(-335.876 -265.72)" fill="#fff"/>
  </g>
</svg>
