<svg xmlns="http://www.w3.org/2000/svg" width="74" height="35.747" viewBox="0 0 74 35.747">
  <g id="car_1_" data-name="car (1)" transform="translate(0.001 -132.337)">
    <path id="Path_26332" data-name="Path 26332" d="M70.581,146.82a35.742,35.742,0,0,0-6.475-2.614,1.084,1.084,0,0,0-.61,2.081,33.574,33.574,0,0,1,6.082,2.456,4.222,4.222,0,0,1,.606.388,19.331,19.331,0,0,0-3.25.236c-2.017.39-2.441,1.416-2.441,2.208,0,2.228,3,4.182,6.42,4.182.309,0,.615-.013.918-.033v1.016h-5.61a7.24,7.24,0,0,0-11.949,0H23.151a7.24,7.24,0,0,0-11.949,0H2.167v-2.583h1.46a1.084,1.084,0,0,0,1.084-1.084v-.818H7.2a2.67,2.67,0,0,0,2.667-2.666v-.933a2.653,2.653,0,0,0-.483-1.53l-2.207-3.149H9.8a1.084,1.084,0,0,0,.914-.5,19.677,19.677,0,0,1,6.023-5.783,19.686,19.686,0,0,1,5.316-2.412c-.33.189-.655.386-.974.593a23.9,23.9,0,0,0-5.2,4.45,2.257,2.257,0,0,0,1.63,3.729l34.881,1.178h.031c.03,0,.059,0,.088,0h0a26.616,26.616,0,0,1,6.23.066,1.084,1.084,0,1,0,.272-2.151,28.884,28.884,0,0,0-6.239-.12c-1.71-1.6-3.383-3.136-4.978-4.581a22.562,22.562,0,0,0-13.9-5.8l-5.046-.27a22.931,22.931,0,0,0-19.64,9.438c-3.605.016-3.926-.033-4.307.036A2.8,2.8,0,0,0,2.543,144.6v6.555s0,.008,0,.013,0,.008,0,.013v.805H1.519A1.521,1.521,0,0,0,0,153.507v6.633a1.522,1.522,0,0,0,1.219,1.489l9.216,1.862a7.246,7.246,0,0,0,13.275.482h4a1.084,1.084,0,0,0,0-2.168h-3.35a7.169,7.169,0,0,0-.2-2.9h29.1a7.169,7.169,0,0,0-.2,2.9h-20.3a1.084,1.084,0,0,0,0,2.168H53.714a7.247,7.247,0,0,0,13.066,0h3.3A3.921,3.921,0,0,0,74,160.056v-7.6a6.337,6.337,0,0,0-3.418-5.633Zm-53.07-4.985a.089.089,0,0,1,.018-.105A20.914,20.914,0,0,1,30.8,134.645l2.261.121a15.812,15.812,0,0,1-.006,7.64l-15.471-.523a.069.069,0,0,1-.073-.048Zm32.023,1.128-14.265-.482a18.425,18.425,0,0,0,.058-7.533,20.4,20.4,0,0,1,11.017,5.094C47.378,140.979,48.445,141.957,49.534,142.963ZM7.7,148.655v.933a.5.5,0,0,1-.5.5H4.711V144.6a.622.622,0,0,1,.065-.273l2.831,4.039A.5.5,0,0,1,7.7,148.655Zm-5.53,10.954v-.7h8.024a7.2,7.2,0,0,0-.254,2.271Zm15.009,6.307a5.08,5.08,0,1,1,5.08-5.08A5.086,5.086,0,0,1,17.176,165.915Zm53.737-12.327c-2.45,0-4.056-1.256-4.235-1.9.449-.26,1.871-.392,4.235-.392.256,0,.511.009.762.026a4.19,4.19,0,0,1,.155,1.132v1.1C71.531,153.576,71.224,153.588,70.913,153.588ZM60.247,165.915a5.08,5.08,0,1,1,5.08-5.08A5.086,5.086,0,0,1,60.247,165.915Zm9.835-4.111H67.428a7.169,7.169,0,0,0-.2-2.9h4.6v1.149a1.751,1.751,0,0,1-1.749,1.749Z" fill="#fff"/>
    <path id="Path_26333" data-name="Path 26333" d="M97.868,305a3.544,3.544,0,1,0,3.544,3.544A3.548,3.548,0,0,0,97.868,305Zm0,4.921a1.376,1.376,0,1,1,1.376-1.376A1.378,1.378,0,0,1,97.868,309.917Z" transform="translate(-80.692 -147.705)" fill="#fff"/>
    <path id="Path_26334" data-name="Path 26334" d="M395.87,305a3.544,3.544,0,1,0,3.544,3.544A3.548,3.548,0,0,0,395.87,305Zm0,4.921a1.376,1.376,0,1,1,1.376-1.376A1.378,1.378,0,0,1,395.87,309.917Z" transform="translate(-335.624 -147.705)" fill="#fff"/>
    <path id="Path_26335" data-name="Path 26335" d="M249.584,228.686a1.084,1.084,0,1,0,0,2.168h.752a1.084,1.084,0,1,0,0-2.168Z" transform="translate(-212.585 -82.424)" fill="#fff"/>
    <path id="Path_26336" data-name="Path 26336" d="M137.491,228.686a1.084,1.084,0,0,0,0,2.168h.752a1.084,1.084,0,0,0,0-2.168Z" transform="translate(-116.693 -82.424)" fill="#fff"/>
  </g>
</svg>
