<svg id="van" xmlns="http://www.w3.org/2000/svg" width="63.399" height="36.809" viewBox="0 0 63.399 36.809">
  <path id="Path_26324" data-name="Path 26324" d="M46.015,0H9.2A9.214,9.214,0,0,0,0,9.2V29.654a1.023,1.023,0,0,0,1.023,1.023H5.195a7.149,7.149,0,0,0,14.152,0H44.052a7.149,7.149,0,0,0,14.152,0h4.172A1.023,1.023,0,0,0,63.4,29.654V17.383A17.4,17.4,0,0,0,46.015,0ZM60.064,11.248H46.015V6.135H56.241a1.053,1.053,0,0,0,.137-.027,15.377,15.377,0,0,1,3.686,5.14ZM2.045,17.383h48.06A11.261,11.261,0,0,1,61.353,28.632H58.2a7.149,7.149,0,0,0-14.152,0H19.347a7.149,7.149,0,0,0-14.152,0H2.045ZM12.271,34.767a5.113,5.113,0,1,1,5.113-5.113A5.113,5.113,0,0,1,12.271,34.767Zm38.857,0a5.113,5.113,0,1,1,5.113-5.113A5.113,5.113,0,0,1,51.128,34.767ZM50.105,15.338H2.045V9.2A7.166,7.166,0,0,1,9.2,2.045H46.015A15.228,15.228,0,0,1,53.634,4.09H44.993A1.023,1.023,0,0,0,43.97,5.113v7.158a1.023,1.023,0,0,0,1.023,1.023h15.79a15.247,15.247,0,0,1,.571,4.09v4.193a13.282,13.282,0,0,0-11.248-6.238Zm0,0" fill="#fff"/>
  <path id="Path_26325" data-name="Path 26325" d="M75.068,208a3.068,3.068,0,1,0,3.068,3.068A3.068,3.068,0,0,0,75.068,208Zm0,4.09a1.023,1.023,0,1,1,1.023-1.023A1.023,1.023,0,0,1,75.068,212.09Zm0,0" transform="translate(-62.797 -181.414)" fill="#fff"/>
  <path id="Path_26326" data-name="Path 26326" d="M379.068,208a3.068,3.068,0,1,0,3.068,3.068A3.068,3.068,0,0,0,379.068,208Zm0,4.09a1.023,1.023,0,1,1,1.023-1.023A1.023,1.023,0,0,1,379.068,212.09Zm0,0" transform="translate(-327.94 -181.414)" fill="#fff"/>
  <path id="Path_26327" data-name="Path 26327" d="M258.226,32h-9.2A1.023,1.023,0,0,0,248,33.023V40.18a1.023,1.023,0,0,0,1.023,1.023h9.2a1.023,1.023,0,0,0,1.023-1.023V33.023A1.023,1.023,0,0,0,258.226,32ZM257.2,39.158h-7.158V34.045H257.2Zm0,0" transform="translate(-216.301 -27.91)" fill="#fff"/>
  <path id="Path_26328" data-name="Path 26328" d="M162.226,32h-9.2A1.023,1.023,0,0,0,152,33.023V40.18a1.023,1.023,0,0,0,1.023,1.023h9.2a1.023,1.023,0,0,0,1.023-1.023V33.023A1.023,1.023,0,0,0,162.226,32ZM161.2,39.158h-7.158V34.045H161.2Zm0,0" transform="translate(-132.571 -27.91)" fill="#fff"/>
  <path id="Path_26329" data-name="Path 26329" d="M66.226,32h-9.2A1.023,1.023,0,0,0,56,33.023V40.18A1.023,1.023,0,0,0,57.023,41.2h9.2a1.023,1.023,0,0,0,1.023-1.023V33.023A1.023,1.023,0,0,0,66.226,32ZM65.2,39.158H58.045V34.045H65.2Zm0,0" transform="translate(-48.842 -27.91)" fill="#fff"/>
  <path id="Path_26330" data-name="Path 26330" d="M35.248,154.045a1.023,1.023,0,1,0,0-2.045H25.023a1.023,1.023,0,1,0,0,2.045Zm0,0" transform="translate(-20.932 -132.571)" fill="#fff"/>
  <path id="Path_26331" data-name="Path 26331" d="M129.023,154.045h2.045a1.023,1.023,0,1,0,0-2.045h-2.045a1.023,1.023,0,0,0,0,2.045Zm0,0" transform="translate(-111.639 -132.571)" fill="#fff"/>
</svg>
