<svg xmlns="http://www.w3.org/2000/svg" xmlns:xlink="http://www.w3.org/1999/xlink" width="143" height="162" viewBox="0 0 143 162">
  <defs>
    <clipPath id="clip-path">
      <rect id="Rectangle_2326" data-name="Rectangle 2326" width="143" height="162" fill="#fff"/>
    </clipPath>
  </defs>
  <g id="Group_4824" data-name="Group 4824" clip-path="url(#clip-path)">
    <path id="Path_26352" data-name="Path 26352" d="M53.878,256.211h-5.26a34.6,34.6,0,0,0-1.745-3.706,2.9,2.9,0,0,0-.733-.9,2.926,2.926,0,0,0-1.031-.542v5.149H40.369v-16.2h6.19a8.5,8.5,0,0,1,5.053,1.224,4.78,4.78,0,0,1,1.765,4.09q0,3.653-2.741,4.8Q51.472,250.87,53.878,256.211ZM47.862,243.7a3.845,3.845,0,0,0-1.6-.245H45.108v3.759H46.5a3.163,3.163,0,0,0,1.544-.278,2.146,2.146,0,0,0-.194-3.236Z" transform="translate(-17.87 -106.245)" fill="#408eff"/>
    <path id="Path_26353" data-name="Path 26353" d="M88.76,247.292a4.53,4.53,0,0,1,1.484,1.737,4.484,4.484,0,0,1,.441,2.234v7.677H86.808l-.314-.708a5.305,5.305,0,0,1-3.536,1.039,6.488,6.488,0,0,1-3.188-.728,3.332,3.332,0,0,1-1.319-1.286,3.283,3.283,0,0,1-.425-1.785,4.323,4.323,0,0,1,2.881-4.084,7.263,7.263,0,0,1,3.035-.708,6.445,6.445,0,0,1,2.339.443v-.337a.946.946,0,0,0-.163-.483.958.958,0,0,0-.391-.331,3.1,3.1,0,0,0-1.638-.377,8.39,8.39,0,0,0-4.679,1.794l-.528-3.415q1.892-1.794,5.748-1.794A7.163,7.163,0,0,1,88.76,247.292Zm-4.6,8.8a2.068,2.068,0,0,0,1.264-.254,2.042,2.042,0,0,0,.861-.951v-1.172a4.046,4.046,0,0,0-.922-.106,4.319,4.319,0,0,0-1.337.212q-1.156.377-1.156,1.224Q82.884,256.094,84.161,256.094Z" transform="translate(-34.537 -108.974)" fill="#408eff"/>
    <path id="Path_26354" data-name="Path 26354" d="M121.392,251.657l-.334.4v3.726h-4.472V239.036h4.472v7.492l2.674-3.143h4.886l-4.325,4.97,5.154,7.419h-5.1Z" transform="translate(-51.609 -105.814)" fill="#408eff"/>
    <path id="Path_26355" data-name="Path 26355" d="M163.415,247.924a5.928,5.928,0,0,1,1.838,4.468v.278l-.047,1.548h-8.689q.313,1.324,3.081,1.324a12.139,12.139,0,0,0,4.84-.735v3.163a12.475,12.475,0,0,1-5.829,1.211,6.891,6.891,0,0,1-4.866-1.8,6.576,6.576,0,0,1,0-9.484,6.933,6.933,0,0,1,4.866-1.787,6.725,6.725,0,0,1,4.806,1.813Zm-6.925,3.481h4.251q-.234-1.568-2.146-1.568t-2.118,1.6Z" transform="translate(-67.162 -108.944)" fill="#408eff"/>
    <path id="Path_26356" data-name="Path 26356" d="M202.366,244.893a7.232,7.232,0,0,1,1.6,4.864,6.37,6.37,0,0,1-1.671,4.586,5.763,5.763,0,0,1-4.358,1.747,5.275,5.275,0,0,1-3.282-1.1l-.227.788h-3.944V239.036h4.485v5.1a6.589,6.589,0,0,1,1.09-.6,4.91,4.91,0,0,1,2.166-.523,5.247,5.247,0,0,1,2.288.471A5.191,5.191,0,0,1,202.366,244.893Zm-2.9,4.864q0-3.17-2.439-3.17a1.941,1.941,0,0,0-1.938,1.787q-.107.854-.107,1.125v.152a7.041,7.041,0,0,0,.067,1.245,2.168,2.168,0,0,0,.8,1.357,1.958,1.958,0,0,0,1.27.463q2.359.02,2.359-2.958Z" transform="translate(-84.324 -105.814)" fill="#408eff"/>
    <path id="Path_26357" data-name="Path 26357" d="M24.776,284.151H23.633v3.275H22.37v-3.275H21.24v-1.059h3.536Z" transform="translate(-9.402 -125.316)" fill="#408eff"/>
    <path id="Path_26358" data-name="Path 26358" d="M33.183,286.473h-.956l-.214.94H30.523l1.437-4.322H33.43l1.471,4.322H33.41Zm-.475-1.985-.214.933h.435Z" transform="translate(-13.511 -125.316)" fill="#408eff"/>
    <path id="Path_26359" data-name="Path 26359" d="M44.3,285.249l1.424,2.164H44.19l-.715-1.125-.668,1.125H41.269l1.337-2.164-1.337-2.157H42.8l.668,1.131.715-1.131H45.72Z" transform="translate(-18.268 -125.316)" fill="#408eff"/>
    <path id="Path_26360" data-name="Path 26360" d="M54.149,287.414H52.866v-4.322h1.283Z" transform="translate(-23.402 -125.316)" fill="#408eff"/>
    <path id="Path_26361" data-name="Path 26361" d="M66.336,283.09a2.235,2.235,0,0,1,.865.147,2.208,2.208,0,0,1,.739.469,2.041,2.041,0,0,1,.635,1.535,2.079,2.079,0,0,1-.635,1.548,2.21,2.21,0,0,1-1.6.616H64.572V283.09Zm0,3.309a.79.79,0,0,0,.321-.06.772.772,0,0,0,.268-.186,1.268,1.268,0,0,0,.294-.906,1.249,1.249,0,0,0-.294-.9.783.783,0,0,0-.582-.239h-.5v2.3Z" transform="translate(-28.584 -125.315)" fill="#408eff"/>
    <path id="Path_26362" data-name="Path 26362" d="M79.532,287.408h-1.4a9.244,9.244,0,0,0-.468-.986.764.764,0,0,0-.194-.239.773.773,0,0,0-.274-.145v1.37H75.929v-4.322H77.58a2.273,2.273,0,0,1,1.337.324,1.266,1.266,0,0,1,.468,1.092,1.229,1.229,0,0,1-.153.757,1.245,1.245,0,0,1-.576.52A7.179,7.179,0,0,1,79.532,287.408ZM77.921,284.1a1.018,1.018,0,0,0-.428-.066h-.3v1.006h.368a.847.847,0,0,0,.414-.072.454.454,0,0,0,.142-.183.446.446,0,0,0,.032-.228.454.454,0,0,0-.227-.489Z" transform="translate(-33.611 -125.311)" fill="#408eff"/>
    <path id="Path_26363" data-name="Path 26363" d="M87.615,287.414H86.351v-4.322h1.263Z" transform="translate(-38.225 -125.316)" fill="#408eff"/>
    <path id="Path_26364" data-name="Path 26364" d="M96.686,283.092l-1.5,4.322H93.725l-1.437-4.322h1.524l.668,2.74.7-2.74Z" transform="translate(-40.853 -125.316)" fill="#408eff"/>
    <path id="Path_26365" data-name="Path 26365" d="M105.085,284.151v.589h1.744v1.046h-1.744v.6h2.059v1.039H103.8v-4.328h3.342v1.059Z" transform="translate(-45.949 -125.316)" fill="#408eff"/>
    <path id="Path_26366" data-name="Path 26366" d="M117.532,287.408h-1.4a9.139,9.139,0,0,0-.468-.986.776.776,0,0,0-.468-.384v1.37h-1.256v-4.322h1.651a2.274,2.274,0,0,1,1.337.324,1.267,1.267,0,0,1,.37.489,1.251,1.251,0,0,1,.1.6,1.224,1.224,0,0,1-.153.757,1.245,1.245,0,0,1-.576.52A7.177,7.177,0,0,1,117.532,287.408Zm-1.611-3.309a1.019,1.019,0,0,0-.428-.066h-.308v1.006h.368a.849.849,0,0,0,.415-.072.455.455,0,0,0,.142-.183.443.443,0,0,0,.032-.228.452.452,0,0,0-.021-.276.46.46,0,0,0-.179-.213Z" transform="translate(-50.436 -125.311)" fill="#408eff"/>
    <path id="Path_26367" data-name="Path 26367" d="M131.221,286.473H130.3l-.214.94h-1.518L130,283.092h1.47l1.5,4.322h-1.518Zm-.475-1.985-.214.933h.435Z" transform="translate(-56.913 -125.316)" fill="#408eff"/>
    <path id="Path_26368" data-name="Path 26368" d="M141.764,283.087a2.274,2.274,0,0,1,1.337.324,1.274,1.274,0,0,1,.371.489,1.257,1.257,0,0,1,.1.6,1.375,1.375,0,0,1-.141.757,1.4,1.4,0,0,1-.527.566,3.2,3.2,0,0,1-1.544.3v1.324h-1.263v-4.362Zm-.387,2.039a2.2,2.2,0,0,0,.755-.08q.2-.1.2-.5a.478.478,0,0,0-.045-.268.489.489,0,0,0-.183-.2.992.992,0,0,0-.428-.066h-.307Z" transform="translate(-62.015 -125.311)" fill="#408eff"/>
    <path id="Path_26369" data-name="Path 26369" d="M152.186,283.087a2.273,2.273,0,0,1,1.337.324,1.266,1.266,0,0,1,.468,1.092,1.381,1.381,0,0,1-.142.757,1.4,1.4,0,0,1-.527.566,3.2,3.2,0,0,1-1.544.3v1.324h-1.263v-4.362Zm-.387,2.039a2.2,2.2,0,0,0,.755-.08q.2-.1.2-.5a.478.478,0,0,0-.045-.268.489.489,0,0,0-.183-.2.992.992,0,0,0-.428-.066h-.307Z" transform="translate(-66.628 -125.311)" fill="#408eff"/>
    <path id="Path_26370" data-name="Path 26370" d="M162.176,286.367h1.731v1.039h-2.995v-4.315h1.263Z" transform="translate(-71.231 -125.316)" fill="#408eff"/>
    <path id="Path_26371" data-name="Path 26371" d="M171.352,287.414h-1.263v-4.322h1.263Z" transform="translate(-75.293 -125.316)" fill="#408eff"/>
    <path id="Path_26372" data-name="Path 26372" d="M180.492,286.393a1.509,1.509,0,0,1-.4.563,1.869,1.869,0,0,1-1.3.463,2.2,2.2,0,0,1-.882-.162,2.178,2.178,0,0,1-.742-.5,2.312,2.312,0,0,1,0-3.183,2.165,2.165,0,0,1,.745-.5,2.192,2.192,0,0,1,.886-.16,1.87,1.87,0,0,1,1.29.45,1.618,1.618,0,0,1,.407.569l-1.009.569a.77.77,0,0,0-.275-.3.779.779,0,0,0-.393-.121q-.855,0-.862,1.086t.862,1.1a.783.783,0,0,0,.395-.124.768.768,0,0,0,.274-.307Z" transform="translate(-78.144 -125.236)" fill="#408eff"/>
    <path id="Path_26373" data-name="Path 26373" d="M189.508,286.473h-.922l-.214.94h-1.518l1.437-4.322h1.471l1.5,4.322h-1.517Zm-.475-1.985-.214.933h.435Z" transform="translate(-82.714 -125.316)" fill="#408eff"/>
    <path id="Path_26374" data-name="Path 26374" d="M201.242,284.151h-1.123v3.275h-1.263v-3.275h-1.123v-1.059h3.516Z" transform="translate(-87.53 -125.316)" fill="#408eff"/>
    <path id="Path_26375" data-name="Path 26375" d="M209.046,287.414h-1.263v-4.322h1.263Z" transform="translate(-91.979 -125.316)" fill="#408eff"/>
    <path id="Path_26376" data-name="Path 26376" d="M214.86,286.766a2.313,2.313,0,0,1,0-3.177,2.261,2.261,0,0,1,.736-.488,2.282,2.282,0,0,1,1.737,0,2.253,2.253,0,0,1,.736.488,2.319,2.319,0,0,1,0,3.177,2.276,2.276,0,0,1-3.209,0Zm2.159-.7a1.235,1.235,0,0,0,.268-.881q0-1.085-.822-1.085t-.822,1.085q0,1.1.822,1.1a.734.734,0,0,0,.555-.218Z" transform="translate(-94.832 -125.244)" fill="#408eff"/>
    <path id="Path_26377" data-name="Path 26377" d="M230.483,283.092v4.322H228.6l-.969-2.753v2.753h-1.263v-4.322h2.005l.835,2.687v-2.687Z" transform="translate(-100.208 -125.316)" fill="#408eff"/>
    <path id="Path_26378" data-name="Path 26378" d="M100.37,187.358a11.249,11.249,0,1,0-13.312-8.9A11.25,11.25,0,0,0,100.37,187.358Z" transform="translate(-38.445 -73.073)" fill="#1b3f5e"/>
    <path id="Path_26379" data-name="Path 26379" d="M43.882,19.583l54.142.225a9.527,9.527,0,0,0-.836-1.185C91.373,12.8,85.564,6.969,79.7,1.2A3.519,3.519,0,0,0,77.55.251Q51.616.066,25.714,0c-.388,0-.769.066-1.337.113-.04.662-.114,1.324-.12,1.952-.033,7.942-.107,15.883-.04,23.825a4.728,4.728,0,0,0,1.2,2.833q34.965,35.016,70,69.94c.4.4.849.761,1.511,1.324A21.778,21.778,0,0,0,97,96.936a104.564,104.564,0,0,1,.107-21.264,4.552,4.552,0,0,0-1.391-4.289Q70.665,46.466,45.673,21.463C45.172,20.966,44.7,20.443,43.882,19.583Z" transform="translate(-10.708)" fill="#e21010"/>
    <path id="Path_26380" data-name="Path 26380" d="M165.83,147.495a77.834,77.834,0,0,1,.354-11.35,22.669,22.669,0,0,0,7.707-3.4c7.2-5.387,5.481-15.8,5.348-23.567-.187-11.648.207-23.918,7.667-33.574,7.039-9.1,17.272-13.5,28.568-14.1V73.968c-11.51,3.117-20.514,6.552-23.034,19.755-1.958,10.251-.193,21.356-.969,31.767C190.568,137.806,178.683,147.918,165.83,147.495Z" transform="translate(-73.367 -27.224)" fill="#408eff"/>
    <path id="Path_26381" data-name="Path 26381" d="M86.855,141.259a80.146,80.146,0,0,1-11.463-.351,22.221,22.221,0,0,0-3.436-7.63c-5.441-7.128-15.955-5.427-23.8-5.295-11.764.185-24.157-.205-33.909-7.591C5.053,113.417.608,103.278,0,92.1H12.593c3.148,11.4,6.617,20.311,19.952,22.806,10.354,1.939,21.57.192,32.084.959C77.069,116.765,87.283,128.539,86.855,141.259Z" transform="translate(0 -40.77)" fill="#408eff"/>
    <path id="Path_26382" data-name="Path 26382" d="M172.955.641H160.589v99.6h12.366Z" transform="translate(-71.088 -0.284)" fill="#ffc107"/>
  </g>
</svg>
